<svg width="38" height="42" viewBox="0 0 38 42" fill="none" xmlns="http://www.w3.org/2000/svg">
<path fill-rule="evenodd" clip-rule="evenodd" d="M10.2708 0.166992H27.7312C34.1667 0.166992 37.75 3.87533 37.75 10.2295V31.7503C37.75 38.2086 34.1667 41.8336 27.7312 41.8336H10.2708C3.9375 41.8336 0.25 38.2086 0.25 31.7503V10.2295C0.25 3.87533 3.9375 0.166992 10.2708 0.166992ZM10.8333 9.87533V9.85449H17.0604C17.9583 9.85449 18.6875 10.5837 18.6875 11.4774C18.6875 12.3962 17.9583 13.1253 17.0604 13.1253H10.8333C9.93542 13.1253 9.20833 12.3962 9.20833 11.5003C9.20833 10.6045 9.93542 9.87533 10.8333 9.87533ZM10.8333 22.5419H27.1667C28.0625 22.5419 28.7917 21.8128 28.7917 20.917C28.7917 20.0211 28.0625 19.2899 27.1667 19.2899H10.8333C9.93542 19.2899 9.20833 20.0211 9.20833 20.917C9.20833 21.8128 9.93542 22.5419 10.8333 22.5419ZM10.8333 32.0628H27.1667C27.9979 31.9795 28.625 31.269 28.625 30.4378C28.625 29.5836 27.9979 28.8753 27.1667 28.7919H10.8333C10.2083 28.7294 9.60417 29.0211 9.27083 29.5628C8.9375 30.0836 8.9375 30.7711 9.27083 31.3128C9.60417 31.8336 10.2083 32.1461 10.8333 32.0628Z" fill="white"/>
</svg>
