<svg width="46" height="34" viewBox="0 0 46 34" fill="none" xmlns="http://www.w3.org/2000/svg">
<path fill-rule="evenodd" clip-rule="evenodd" d="M31.6633 9.15193C31.6633 14.0472 27.7608 17.9722 22.8939 17.9722C18.0271 17.9722 14.1246 14.0472 14.1246 9.15193C14.1246 4.25489 18.0271 0.333496 22.8939 0.333496C27.7608 0.333496 31.6633 4.25489 31.6633 9.15193ZM22.8939 33.6668C15.7457 33.6668 9.64202 32.5337 9.64202 28.0005C9.64202 23.4655 15.7065 22.291 22.8939 22.291C30.0422 22.291 36.146 23.4243 36.146 27.9593C36.146 32.4922 30.0814 33.6668 22.8939 33.6668ZM35.4108 9.31106C35.4108 11.8065 34.6664 14.1312 33.3606 16.0637C33.2264 16.2626 33.3458 16.531 33.5827 16.5722C33.9091 16.6285 34.2468 16.6603 34.59 16.6697C38.0131 16.7599 41.0854 14.5439 41.9341 11.208C43.1914 6.25275 39.4997 1.80412 34.7989 1.80412C34.2879 1.80412 33.7991 1.85854 33.3233 1.9561C33.2581 1.9711 33.1891 2.00112 33.1518 2.05929C33.107 2.13058 33.1406 2.22627 33.1854 2.28818C34.5975 4.27891 35.4108 6.70679 35.4108 9.31106ZM41.0797 20.1514C43.38 20.6035 44.8927 21.5266 45.5195 22.8682C46.0493 23.9695 46.0493 25.2472 45.5195 26.3468C44.5606 28.4276 41.4697 29.0955 40.2683 29.268C40.0202 29.3057 39.8206 29.0899 39.8468 28.8403C40.4604 23.0745 35.5787 20.341 34.3158 19.7122C34.2616 19.6841 34.2506 19.641 34.256 19.6147C34.2597 19.596 34.2822 19.566 34.3233 19.5603C37.056 19.5097 39.9941 19.8849 41.0797 20.1514ZM11.4108 16.6695C11.754 16.6601 12.0898 16.6301 12.4181 16.572C12.655 16.5307 12.7744 16.2624 12.6401 16.0635C11.3343 14.131 10.59 11.8063 10.59 9.31087C10.59 6.7066 11.4033 4.27872 12.8155 2.288C12.8602 2.22608 12.892 2.13039 12.849 2.0591C12.8117 2.00281 12.7409 1.97091 12.6774 1.95591C12.1999 1.85835 11.7111 1.80393 11.2 1.80393C6.49914 1.80393 2.80748 6.25256 4.06664 11.2078C4.91541 14.5437 7.98777 16.7597 11.4108 16.6695ZM11.7438 19.6137C11.7494 19.6418 11.7382 19.683 11.686 19.713C10.4212 20.3416 5.53939 23.0753 6.15312 28.8393C6.17923 29.0905 5.9815 29.3045 5.73339 29.2689C4.53206 29.0962 1.44106 28.4282 0.482226 26.3476C-0.0494138 25.2462 -0.0494138 23.9703 0.482226 22.8689C1.10902 21.5274 2.62 20.6043 4.92008 20.1503C6.00762 19.8857 8.94379 19.5103 11.6785 19.5612C11.7195 19.5668 11.7401 19.5968 11.7438 19.6137Z" fill="white"/>
</svg>
