<svg width="40" height="40" viewBox="0 0 40 40" fill="none" xmlns="http://www.w3.org/2000/svg">
<path fill-rule="evenodd" clip-rule="evenodd" d="M29.3306 0.0206705C32.2076 -0.159143 35.0448 0.839824 37.1826 2.7978C39.1406 4.93558 40.1394 7.77266 39.9796 10.6697V29.3304C40.1594 32.2274 39.1406 35.0644 37.2026 37.2022C35.0646 39.1602 32.2076 40.1592 29.3306 39.9794H10.6697C7.77272 40.1592 4.93562 39.1602 2.79782 37.2022C0.83983 35.0644 -0.159145 32.2274 0.0206707 29.3304V10.6697C-0.159145 7.77266 0.83983 4.93558 2.79782 2.7978C4.93562 0.839824 7.77272 -0.159143 10.6697 0.0206705H29.3306ZM17.9623 29.69L31.4084 16.2039C32.6272 14.9652 32.6272 12.9673 31.4084 11.7485L28.8112 9.15122C27.5724 7.9125 25.5744 7.9125 24.3358 9.15122L22.997 10.5098C22.7972 10.7096 22.7972 11.0493 22.997 11.2491C22.997 11.2491 26.1738 14.4058 26.2338 14.4857C26.4536 14.7255 26.5934 15.0451 26.5934 15.4048C26.5934 16.124 26.014 16.7234 25.2748 16.7234C24.935 16.7234 24.6154 16.5835 24.3956 16.3638L21.059 13.0472C20.8992 12.8874 20.6196 12.8874 20.4596 13.0472L10.9295 22.5774C10.2701 23.2366 9.89054 24.1158 9.87056 25.0548L9.75068 29.79C9.75068 30.0496 9.8306 30.2894 10.0104 30.4692C10.1902 30.649 10.43 30.749 10.6897 30.749H15.3849C16.3439 30.749 17.263 30.3694 17.9623 29.69Z" fill="white"/>
</svg>
