<svg width="42" height="44" viewBox="0 0 42 44" fill="none" xmlns="http://www.w3.org/2000/svg">
<path fill-rule="evenodd" clip-rule="evenodd" d="M13.637 6.90918C13.1723 7.53683 13.2256 8.43214 13.8128 9.00032C14.4378 9.62532 15.4586 9.62532 16.0836 9.00032L19.3961 5.66699V14.292H22.6044V5.66699L25.9169 9.00032L26.0965 9.15528C26.7242 9.62016 27.6196 9.56851 28.1878 9.00032C28.5003 8.68782 28.6669 8.27116 28.6669 7.85449C28.6669 7.45866 28.5003 7.04199 28.1878 6.72949L22.1253 0.646159L21.9363 0.476326C21.6669 0.273659 21.3336 0.166992 21.0003 0.166992C20.5628 0.166992 20.1669 0.333659 19.8544 0.646159L13.7919 6.72949L13.637 6.90918ZM8.98142 14.3027C4.07882 14.5342 0.166504 18.6584 0.166504 23.6826V34.0265L0.176587 34.4692C0.404212 39.4586 4.45877 43.459 9.43734 43.459H32.5832L33.0182 43.4488C37.9209 43.2172 41.8332 39.0926 41.8332 34.0478V23.7249L41.823 23.2805C41.5942 18.273 37.5207 14.2924 32.5623 14.2924L22.6044 14.292L22.604 27.0105L22.5892 27.234C22.4815 28.0369 21.8019 28.6426 20.9998 28.6426C20.104 28.6426 19.3957 27.9219 19.3957 27.0105L19.3961 14.292L9.4165 14.2924L8.98142 14.3027Z" fill="white"/>
</svg>
