<svg width="42" height="42" viewBox="0 0 42 42" fill="none" xmlns="http://www.w3.org/2000/svg">
<path fill-rule="evenodd" clip-rule="evenodd" d="M25.4192 19.4026H31.1855C32.0598 19.4026 32.7469 18.6799 32.7469 17.8082C32.7469 16.9151 32.0598 16.2136 31.1855 16.2136H25.4192C24.5448 16.2136 23.858 16.9151 23.858 17.8082C23.858 18.6799 24.5448 19.4026 25.4192 19.4026ZM38.0344 8.34928C39.3042 8.34928 40.1369 8.79574 40.9696 9.77374C41.8023 10.7517 41.948 12.1549 41.7607 13.4284L39.783 27.3755C39.4084 30.0563 37.16 32.0315 34.5163 32.0315H11.8048C9.03613 32.0315 6.74626 29.8651 6.51728 27.0586L4.60209 3.88243L1.45872 3.32963C0.626029 3.18082 0.0431545 2.35165 0.188863 1.50124C0.334592 0.631675 1.14647 0.0555088 1.99997 0.185196L6.96484 0.948446C7.67261 1.07813 8.19305 1.67132 8.25551 2.39418L8.65103 7.15655C8.71347 7.83901 9.25472 8.34928 9.92086 8.34928H38.0344ZM11.4713 35.3917C9.7227 35.3917 8.30713 36.8374 8.30713 38.6234C8.30713 40.388 9.7227 41.8336 11.4713 41.8336C13.1992 41.8336 14.6147 40.388 14.6147 38.6234C14.6147 36.8374 13.1992 35.3917 11.4713 35.3917ZM34.8907 35.3917C33.1419 35.3917 31.7263 36.8374 31.7263 38.6234C31.7263 40.388 33.1419 41.8336 34.8907 41.8336C36.6184 41.8336 38.034 40.388 38.034 38.6234C38.034 36.8374 36.6184 35.3917 34.8907 35.3917Z" fill="white"/>
</svg>
