<svg width="38" height="42" viewBox="0 0 38 42" fill="none" xmlns="http://www.w3.org/2000/svg">
<path fill-rule="evenodd" clip-rule="evenodd" d="M28.1894 1.76829L28.1914 3.33C33.9302 3.77979 37.7212 7.69033 37.7273 13.6873L37.75 31.2411C37.7581 37.7795 33.6504 41.8024 27.0662 41.8128L10.9831 41.8336C4.43997 41.8419 0.280868 37.7232 0.272639 31.1661L0.250014 13.8185C0.241785 7.78193 3.89901 3.88181 9.63785 3.355L9.63578 1.79327C9.63374 0.87706 10.3125 0.18783 11.2176 0.18783C12.1226 0.185747 12.8014 0.872893 12.8035 1.7891L12.8055 3.24671L25.0237 3.23006L25.0217 1.77246C25.0196 0.856247 25.6983 0.16908 26.6035 0.166997C27.4879 0.164914 28.1873 0.85208 28.1894 1.76829ZM3.41974 14.4619L34.5617 14.4203V13.6915C34.4733 9.21456 32.2271 6.86573 28.1954 6.51591L28.1975 8.11927C28.1975 9.01466 27.5002 9.72473 26.6158 9.72473C25.7108 9.72681 25.0298 9.01883 25.0298 8.12343L25.0279 6.43679L12.8096 6.45343L12.8117 8.13802C12.8117 9.03548 12.135 9.74345 11.2299 9.74345C10.3249 9.74554 9.64401 9.03964 9.64401 8.14218L9.64197 6.53881C5.63095 6.94071 3.41151 9.29785 3.41768 13.8143L3.41974 14.4619ZM25.7498 23.9259V23.9488C25.7704 24.9067 26.5521 25.6334 27.5002 25.6126C28.4258 25.5897 29.1644 24.7963 29.1437 23.8384C29.1006 22.9224 28.3579 22.1747 27.4344 22.1767C26.4883 22.1976 25.7477 22.968 25.7498 23.9259ZM27.4487 33.2755C26.5027 33.2547 25.7396 32.4655 25.7375 31.5076C25.7169 30.5497 26.4758 29.7563 27.4221 29.7334H27.4427C28.4094 29.7334 29.1931 30.5226 29.1931 31.5013C29.1952 32.4801 28.4135 33.2734 27.4487 33.2755ZM17.2752 23.9592C17.3165 24.9172 18.1 25.6647 19.0462 25.623C19.9719 25.5792 20.7104 24.788 20.6692 23.8301C20.6465 22.8932 19.8854 22.1642 18.9598 22.1663C18.0137 22.208 17.2731 23.0013 17.2752 23.9592ZM19.0546 33.1817C18.1083 33.2234 17.3267 32.4759 17.2835 31.518C17.2835 30.5601 18.0219 29.7688 18.9681 29.7251C19.8937 29.723 20.6569 30.4517 20.6775 31.3867C20.7206 32.3467 19.9802 33.138 19.0546 33.1817ZM8.80068 24.0322C8.84183 24.9901 9.62551 25.7397 10.5717 25.6959C11.4973 25.6542 12.2358 24.8609 12.1926 23.903C12.172 22.9659 11.4109 22.2372 10.4832 22.2392C9.53706 22.2809 8.79862 23.0742 8.80068 24.0322ZM10.5799 33.1922C9.63374 33.2359 8.8521 32.4863 8.80891 31.5284C8.80685 30.5705 9.54735 29.7772 10.4935 29.7355C11.4192 29.7334 12.1823 30.4622 12.2028 31.3992C12.246 32.3572 11.5076 33.1505 10.5799 33.1922Z" fill="white"/>
</svg>
