<svg width="47" height="47" viewBox="0 0 47 47" fill="none" xmlns="http://www.w3.org/2000/svg">
<path fill-rule="evenodd" clip-rule="evenodd" d="M6.40433 0.583496H14.1502C17.3814 0.583496 19.971 3.21891 19.971 6.45246V14.2647C19.971 17.5189 17.3814 20.1314 14.1502 20.1314H6.40433C3.196 20.1314 0.583496 17.5189 0.583496 14.2647V6.45246C0.583496 3.21891 3.196 0.583496 6.40433 0.583496ZM6.40433 26.8682H14.1502C17.3814 26.8682 19.971 29.483 19.971 32.7371V40.5494C19.971 43.7807 17.3814 46.4161 14.1502 46.4161H6.40433C3.196 46.4161 0.583496 43.7807 0.583496 40.5494V32.7371C0.583496 29.483 3.196 26.8682 6.40433 26.8682ZM40.5962 0.583496H32.8504C29.6191 0.583496 27.0296 3.21891 27.0296 6.45246V14.2647C27.0296 17.5189 29.6191 20.1314 32.8504 20.1314H40.5962C43.8046 20.1314 46.4171 17.5189 46.4171 14.2647V6.45246C46.4171 3.21891 43.8046 0.583496 40.5962 0.583496ZM32.8504 26.8682H40.5962C43.8046 26.8682 46.4171 29.483 46.4171 32.7371V40.5494C46.4171 43.7807 43.8046 46.4161 40.5962 46.4161H32.8504C29.6191 46.4161 27.0296 43.7807 27.0296 40.5494V32.7371C27.0296 29.483 29.6191 26.8682 32.8504 26.8682Z" fill="#2CBAC6"/>
</svg>
