<svg width="42" height="42" viewBox="0 0 42 42" fill="none" xmlns="http://www.w3.org/2000/svg">
<path fill-rule="evenodd" clip-rule="evenodd" d="M11.1042 0H30.5604C37.6459 0 41.6459 4.01875 41.6667 11.1042V30.5624C41.6667 37.6457 37.6459 41.6666 30.5604 41.6666H11.1042C4.01875 41.6666 0 37.6457 0 30.5624V11.1042C0 4.01875 4.01875 0 11.1042 0ZM20.9354 33.0416C21.8334 33.0416 22.5813 32.3749 22.6646 31.4791V10.25C22.7479 9.60417 22.4375 8.95625 21.875 8.60417C21.2896 8.25 20.5813 8.25 20.0209 8.60417C19.4563 8.95625 19.1459 9.60417 19.2063 10.25V31.4791C19.3125 32.3749 20.0604 33.0416 20.9354 33.0416ZM30.5209 33.0416C31.3959 33.0416 32.1438 32.3751 32.25 31.4791V24.6457C32.3104 23.9772 32 23.3541 31.4354 22.9999C30.875 22.6459 30.1667 22.6459 29.5834 22.9999C29.0188 23.3541 28.7084 23.9772 28.7917 24.6457V31.4791C28.875 32.3751 29.6229 33.0416 30.5209 33.0416ZM12.9563 31.4791C12.8729 32.3749 12.125 33.0416 11.2271 33.0416C10.3313 33.0416 9.58125 32.3749 9.5 31.4791V17.0832C9.4375 16.4354 9.74792 15.7917 10.3125 15.4375C10.8729 15.0833 11.5833 15.0833 12.1458 15.4375C12.7063 15.7917 13.0208 16.4354 12.9563 17.0832V31.4791Z" fill="white"/>
</svg>
